@startuml Tron

class Juego
class Jugador
class IA
class Moto
class Arena
class Tron
class Oponente
class Muro
class Jet
class Estela
class Colisionable

Moto o-- Arena
Trono o-- Moto
Oponente o-- Moto
Jugador o-- Tron
IA o-- Oponente

Moto *-- Estela
Arena *-- Muro
Arena *-- Jet

Moto --|> Colisionable
Jet --|> Colisionable
Muro --|> Colisionable
Estela --|> Colisionable
@enduml
